<svg xmlns="http://www.w3.org/2000/svg" version="1.1" xmlns:xlink="http://www.w3.org/1999/xlink" xmlns:svgjs="http://svgjs.com/svgjs" width="512" height="512"><svg id="SvgjsSvg1000" data-name="Layer 1" xmlns="http://www.w3.org/2000/svg" version="1.1" viewBox="0 0 512 512">
  <defs>
    <style>
      .cls-1 {
        fill: #00a99d;
      }

      .cls-1, .cls-2, .cls-3, .cls-4, .cls-5, .cls-6 {
        stroke: #212016;
        stroke-miterlimit: 10;
        stroke-width: 1.9px;
      }

      .cls-2 {
        fill: #8cc63f;
      }

      .cls-3 {
        fill: #ff7bac;
      }

      .cls-4 {
        fill: #662d91;
      }

      .cls-5 {
        fill: #f15a24;
      }

      .cls-6 {
        fill: #fcee21;
      }
    </style>
  </defs>
  <path class="cls-5" d="M305.7,182.8l25.1-101.3,62.1,15.4-24.7,99.5c-7,28.2,1.2,41.4,18.6,45.7,17.4,4.3,30.8-3.5,37.8-31.7l24.7-99.5,61.1,15.1-25.1,101.3c-13.7,55.3-54.8,78.9-111.4,64.9-56.6-14-81.9-54.1-68.2-109.4Z"></path>
  <path class="cls-2" d="M341.4,140.2l7.8,47.6-155.8,25.4-30.5-187.4L315.1,1.1l7.8,47.6-90.2,14.7,3.6,22,79.2-12.9,7.4,45.5-79.2,12.9,4,24.6,93.7-15.2Z"></path>
  <path class="cls-4" d="M256,337.9l-134.3,156.3-59.9-19.2-18.6-205.3,65.6,21,9.3,119.4,78-91.5,59.9,19.2Z"></path>
  <path class="cls-6" d="M187.5,75.9l22,188.6-52.3,6.1-81.6-77.3,10,85.7-62,7.2L1.6,97.6l52.3-6.1,81.6,77.3-10-85.7,62-7.2Z"></path>
  <path class="cls-3" d="M460.5,407l-6,47.9-156.6-19.7,23.7-188.3,153.1,19.3-6,47.9-90.7-11.4-2.8,22.1,79.6,10-5.8,45.7-79.6-10-3.1,24.8,94.2,11.9Z"></path>
  <path class="cls-1" d="M227.7,324.4l62.9-11.9,35.3,186.5-62.9,11.9-35.3-186.5Z"></path>
</svg><style>@media (prefers-color-scheme: light) { :root { filter: none; } }
</style></svg>