<?xml version="1.0" encoding="UTF-8"?>
<svg id="Layer_1" data-name="Layer 1" xmlns="http://www.w3.org/2000/svg" version="1.1" viewBox="0 0 512 512">
  <defs>
    <style>
      .cls-1 {
        fill: #f15a24;
      }

      .cls-1, .cls-2, .cls-3, .cls-4, .cls-5, .cls-6 {
        stroke: #000;
        stroke-miterlimit: 10;
        stroke-width: 1.1px;
      }

      .cls-2 {
        fill: #ff7bac;
      }

      .cls-3 {
        fill: #fcee21;
      }

      .cls-4 {
        fill: #8cc63f;
      }

      .cls-5 {
        fill: #662d91;
      }

      .cls-6 {
        fill: #00a99d;
      }
    </style>
  </defs>
  <path class="cls-1" d="M184.9,279.3l15.3-61.8,37.9,9.4-15,60.7c-4.3,17.2.7,25.2,11.3,27.9,10.6,2.6,18.8-2.2,23-19.4l15-60.7,37.3,9.2-15.3,61.8c-8.4,33.7-33.4,48.1-67.9,39.6-34.5-8.6-50-33-41.6-66.7Z"/>
  <path class="cls-4" d="M203.6,292.6v29.5h-96.3v-115.8h94.2v29.5h-55.8v13.6h49v28.1h-49v15.2h57.9Z"/>
  <path class="cls-3" d="M114.1,218.8l13.4,115.1-31.9,3.7-49.8-47.2,6.1,52.3-37.8,4.4L.7,232l31.9-3.7,49.8,47.2-6.1-52.3,37.8-4.4Z"/>
  <path class="cls-5" d="M393.7,214.2l-35.9,120.5-38.2,4.2-61.4-109.7,41.8-4.6,34.9,64.2,20.7-70.4,38.2-4.2Z"/>
  <path class="cls-2" d="M505.9,291.2l5.5,28.9-94.6,17.9-21.6-113.8,92.5-17.5,5.5,28.9-54.8,10.4,2.5,13.3,48.1-9.1,5.2,27.6-48.1,9.1,2.8,15,56.9-10.8Z"/>
  <path class="cls-6" d="M372.6,230l39,1.2-3.6,115.8-39-1.2,3.6-115.8Z"/>
</svg>