<?xml version="1.0" encoding="UTF-8"?>
<svg id="Layer_1" data-name="Layer 1" xmlns="http://www.w3.org/2000/svg" version="1.1" viewBox="0 0 512 512">
  <defs>
    <style>
      .cls-1 {
        fill: #662d91;
      }

      .cls-1, .cls-2, .cls-3, .cls-4, .cls-5, .cls-6 {
        stroke: #000;
        stroke-miterlimit: 10;
        stroke-width: 1.9px;
      }

      .cls-2 {
        fill: #ff7bac;
      }

      .cls-3 {
        fill: #8cc63f;
      }

      .cls-4 {
        fill: #00a99d;
      }

      .cls-5 {
        fill: #fcee21;
      }

      .cls-6 {
        fill: #f15a24;
      }
    </style>
  </defs>
  <path class="cls-6" d="M305.2,162.5l25.3-102,62.5,15.5-24.8,100.2c-7,28.3,1.2,41.6,18.7,46,17.5,4.3,31-3.6,38-31.9l24.8-100.2,61.5,15.2-25.3,102c-13.8,55.6-55.1,79.4-112.1,65.3-57-14.1-82.4-54.5-68.6-110.1Z"/>
  <path class="cls-3" d="M336.1,184.5v48.6h-158.9V42h155.3v48.6h-92v22.4h80.8v46.4h-80.8v25.1h95.5Z"/>
  <path class="cls-1" d="M266.2,288.8l-135.2,157.3-60.3-19.3-18.7-206.6,66,21.1,9.4,120.2,78.5-92.1,60.3,19.3Z"/>
  <path class="cls-5" d="M188.5,62.8l22.1,189.8-52.6,6.1-82.2-77.8,10,86.2-62.4,7.3L1.4,84.6l52.6-6.1,82.2,77.8-10-86.2,62.4-7.3Z"/>
  <path class="cls-2" d="M465.3,421.8l-6.1,48.2-157.6-19.9,23.9-189.6,154.1,19.4-6.1,48.2-91.3-11.5-2.8,22.2,80.2,10.1-5.8,46-80.2-10.1-3.1,24.9,94.8,11.9Z"/>
  <path class="cls-4" d="M223.2,260.9l63.3-12,35.5,187.7-63.3,12-35.5-187.7Z"/>
</svg>