<?xml version="1.0" encoding="utf-8"?>
<!-- Generator: Adobe Illustrator 28.3.0, SVG Export Plug-In . SVG Version: 6.00 Build 0)  -->
<svg version="1.1" id="Layer_1" xmlns="http://www.w3.org/2000/svg" xmlns:xlink="http://www.w3.org/1999/xlink" x="0px" y="0px"
	 viewBox="0 0 512 512" style="enable-background:new 0 0 512 512;" xml:space="preserve">
<style type="text/css">
	.st0{fill:#E92A2A;}
</style>
<g>
	<circle class="st0" cx="256" cy="256" r="157.07"/>
	<g>
		<path d="M24.46,216.25h7.18l-3.37,15.71c9.65-11.22,23.11-17.73,37.25-17.73c25.58,0,38.82,17.73,33.66,42.41L83.24,331.8h-7.18
			l15.93-74.94c4.71-22.44-6.28-35.9-28.05-35.9c-14.58,0-28.27,7.85-37.47,19.52L7.18,331.8H0L24.46,216.25z"/>
		<path d="M105.23,290.06c0-6.06,0.67-12.56,2.24-19.74c7.4-35.67,29.17-56.32,54.07-56.32c23.56,0,38.82,15.71,38.82,39.71
			c0,6.28-0.67,12.56-2.02,19.07H114.2c-1.12,5.83-1.79,11.44-1.79,16.38c0,24.01,12.12,38.14,31.64,38.14
			c17.5,0,33.43-13.69,42.85-37.47h7.18c-10.55,28.72-28.72,44.2-50.48,44.2C119.59,334.04,105.23,317.21,105.23,290.06z
			 M115.77,266.06h76.73c0.45-3.59,0.67-7.4,0.67-10.77c0-21.31-13.01-34.55-32.08-34.55C141.13,220.73,123.18,237.56,115.77,266.06
			z"/>
		<path d="M203.95,301.51c0-3.14,0.45-6.51,1.12-10.1L221,216.25h7.18l-15.93,74.94c-0.67,3.37-1.12,6.73-1.12,9.65
			c0,16.6,10.77,26.25,29.17,26.25c14.81,0,28.49-7.85,37.47-19.52l19.52-91.32h7.18L279.79,331.8h-7.18l3.37-15.71
			c-9.65,10.99-22.89,17.73-37.25,17.73C216.74,333.82,203.95,320.8,203.95,301.51z"/>
		<path d="M310.08,216.25h7.4l8.3,53.62l8.53,54.07l31.19-54.07l31.19-53.62h8.08L337.23,331.8h-8.53L310.08,216.25z"/>
		<path d="M411.93,216.25h7.18L394.66,331.8h-7.18L411.93,216.25z M417.99,186.41h7.85l-3.37,15.93h-8.08L417.99,186.41z"/>
		<path d="M416.87,290.06c0-6.06,0.67-12.56,2.24-19.74c7.4-35.67,29.17-56.32,54.07-56.32c23.56,0,38.82,15.71,38.82,39.71
			c0,6.28-0.67,12.56-2.02,19.07h-84.14c-1.12,5.83-1.79,11.44-1.79,16.38c0,24.01,12.12,38.14,31.64,38.14
			c17.5,0,33.43-13.69,42.85-37.47h7.18c-10.55,28.72-28.72,44.2-50.48,44.2C431.23,334.04,416.87,317.21,416.87,290.06z
			 M427.41,266.06h76.73c0.45-3.59,0.67-7.4,0.67-10.77c0-21.31-13.01-34.55-32.08-34.55C452.77,220.73,434.82,237.56,427.41,266.06
			z"/>
	</g>
</g>
</svg>
