<?xml version="1.0" encoding="utf-8"?>
<!-- Generator: Adobe Illustrator 28.3.0, SVG Export Plug-In . SVG Version: 6.00 Build 0)  -->
<svg version="1.1" id="Layer_1" xmlns="http://www.w3.org/2000/svg" xmlns:xlink="http://www.w3.org/1999/xlink" x="0px" y="0px"
	 viewBox="0 0 512 512" style="enable-background:new 0 0 512 512;" xml:space="preserve">
<style type="text/css">
	.st0{fill:#E92A2A;}
</style>
<g>
	<circle class="st0" cx="255.72" cy="256.23" r="154.01"/>
	<g>
		<path d="M28.68,217.25h7.04l-3.3,15.4c9.46-11,22.66-17.38,36.52-17.38c25.08,0,38.06,17.38,33,41.58l-15.62,73.7h-7.04
			l15.62-73.48c4.62-22-6.16-35.2-27.5-35.2c-14.3,0-27.72,7.7-36.74,19.14l-18.92,89.54H4.7L28.68,217.25z"/>
		<path d="M107.88,289.63c0-5.94,0.66-12.32,2.2-19.36c7.26-34.98,28.6-55.22,53.02-55.22c23.1,0,38.06,15.4,38.06,38.94
			c0,6.16-0.66,12.32-1.98,18.7h-82.5c-1.1,5.72-1.76,11.22-1.76,16.06c0,23.54,11.88,37.4,31.02,37.4
			c17.16,0,32.78-13.42,42.02-36.74H195c-10.34,28.16-28.16,43.34-49.5,43.34C121.96,332.75,107.88,316.25,107.88,289.63z
			 M118.22,266.09h75.24c0.44-3.52,0.66-7.26,0.66-10.56c0-20.9-12.76-33.88-31.46-33.88C143.08,221.65,125.48,238.15,118.22,266.09
			z"/>
		<path d="M204.68,300.85c0-3.08,0.44-6.38,1.1-9.9l15.62-73.7h7.04l-15.62,73.48c-0.66,3.3-1.1,6.6-1.1,9.46
			c0,16.28,10.56,25.74,28.6,25.74c14.52,0,27.94-7.7,36.74-19.14l19.14-89.54h7.04l-24.2,113.3H272l3.3-15.4
			c-9.46,10.78-22.44,17.38-36.52,17.38C217.22,332.53,204.68,319.77,204.68,300.85z"/>
		<path d="M308.74,217.25H316l8.14,52.58l8.36,53.02l30.58-53.02l30.58-52.58h7.92l-66.22,113.3H327L308.74,217.25z"/>
		<path d="M408.62,217.25h7.04l-23.98,113.3h-7.04L408.62,217.25z M414.56,187.99h7.7l-3.3,15.62h-7.92L414.56,187.99z"/>
		<path d="M413.45,289.63c0-5.94,0.66-12.32,2.2-19.36c7.26-34.98,28.6-55.22,53.02-55.22c23.1,0,38.06,15.4,38.06,38.94
			c0,6.16-0.66,12.32-1.98,18.7h-82.5c-1.1,5.72-1.76,11.22-1.76,16.06c0,23.54,11.88,37.4,31.02,37.4
			c17.16,0,32.78-13.42,42.02-36.74h7.04c-10.34,28.16-28.16,43.34-49.5,43.34C427.53,332.75,413.45,316.25,413.45,289.63z
			 M423.79,266.09h75.24c0.44-3.52,0.66-7.26,0.66-10.56c0-20.9-12.76-33.88-31.46-33.88C448.65,221.65,431.05,238.15,423.79,266.09
			z"/>
	</g>
</g>
</svg>
